<svg id="Banane" xmlns="http://www.w3.org/2000/svg" xmlns:xlink="http://www.w3.org/1999/xlink" width="1102" height="1769" viewBox="0 0 1102 1769">
  <defs>
    <style>
      .cls-1 {
        fill: #323232;
        fill-rule: evenodd;
        filter: url(#filter);
      }
    </style>
    <filter id="filter" x="-0.25" y="-0.313" width="1102.22" height="1769.313" filterUnits="userSpaceOnUse">
      <feFlood result="flood" flood-color="#ffd808"/>
      <feComposite result="composite" operator="in" in2="SourceGraphic"/>
      <feBlend result="blend" in2="SourceGraphic"/>
    </filter>
  </defs>
  <g id="Banane">
    <path id="Banane" class="cls-1" d="M807,638c-1.954-29.746-4.229-44.086-4-67,0.133-13.34,1.075-29.879,2-51,0.607-6.82,1.942-40.607,5-56-2.574-44.163.43-55.223-4.672-97.755-6.744-56.235-15.706-112.613-29.511-166.517C760.521,140,749.552,83.572,707.307,39.664,693.234,24.98,664.043-1.147,653.213.434,637-2.684,615.029,3.373,592.91,27.107c-75.777,79.455-90.49,111.549-100.2,157.3-1.682,27.9-5,70.83-8.466,102.5,2.485,85.548,1.314,84.223-1.049,303.01C481.959,704.465,473.869,714.458,479,788c2.052,29.417,46.9,48.983,62,69,4.394,5.825,27.314,53.263,34,73,8.575,17.253,26.126-109.247,36-133,16.786-42.082,63-68,63-68,13.65-14.264,50.437-30.116,88-40,32.275-8.493,50-28,50-28m22,16c-48.591,58.39-130.21,38.747-188.306,126.914-32.18,48.836-42.281,155.33-80.094,191.742,3.247-57.336-27.861-115.638-89.618-158.688l-41.9-30.237c-84.49-23.051-155.132-.517-249.189,91.524-17.722,37.011-47.77,68.634-64.687,104.755-51.248,109.44-60.3,228.13-86.847,338.07-7.607,31.51-23.793,58.46-32.574,91.2-6.512,24.29,20.318,51.13,10.308,72.25q5.42,5.715,10.841,11.44c6.365,2.1,6.282,2.2,12.988-.26,36.939-17.3,84.477-155.84,93.909-185.54,29.654-93.37,50.953-327.69,177.919-395.469,44.674-23.849,86.385-26.605,129.544-33.567,27.98-2.921,32.166,56.225,31.277,69.257C462.564,1043.8,447.5,1159.02,430,1251c-45.188,237.51-40.524,224.55-39,274,6.731,53.1,20.935,146.23-28,177-46.206,19.22,35.7,37.51,60,67,50.918-28.31,66.5-60.79,120-80,78.982-28.36,119.091-46.37,185-198,43.827-100.83,79.9-272.73,108.42-438.5C847.255,989.519,850.35,964.2,852,952c52.683,12.64,69.558,81.35,70,143,0.932,130.1-122.495,291.66-85,382,169.19-76.43,192.64-61.9,255-394,13.24-68.43,16.39-192.532-10-240,0,0-46.48-90.809-75-110-89.481-60.211-137-74-137-74s-34.12-6.256-40-16C825.906,636.216,830.644,665.45,834,677ZM449,692s-5.1,56.686-1,73c6.229,24.808,4,31,4,31-8.513-1.055-30.594-11.727-47-17-20-6.427-74.49-4.1-86,1,0.055-.024-43,14.512-39,9,20.753-28.58,93-69,93-69ZM435,931s9.07,19.634,12,41c3.475,25.341-9,122-9,122-4.547,12.42-15.264.17-39-20-20.129-17.1-50.948-76.577-65-102-15.318-27.712-.45-25.972,3-28,9.338-5.49,31.731-5.235,43-9,25.1-8.384,46-7,46-7Z"/>
  </g>
</svg>
